<?xml version="1.0" encoding="utf-8"?>
<!-- Generator: Adobe Illustrator 22.1.0, SVG Export Plug-In . SVG Version: 6.00 Build 0)  -->
<svg version="1.1" id="logo" xmlns="http://www.w3.org/2000/svg" xmlns:xlink="http://www.w3.org/1999/xlink" x="0px"
	y="0px" viewBox="0 0 70 85" style="enable-background:new 0 0 70 85;" xml:space="preserve">
	<style type="text/css">
		.st0{fill:url(#SVGID_1_);}
	</style>
	<title>Pwentk Logo</title>
	<linearGradient id="SVGID_1_" gradientUnits="userSpaceOnUse" x1="0" y1="42.5" x2="70.0004" y2="42.5">
		<stop  offset="0" style="stop-color:#EB58AB"/>
		<stop  offset="1" style="stop-color:#FCD528"/>
	</linearGradient>
	<path class="st0" d="M45,0H25v12c0,4.4,3.6,8,8,8h7c3.8,0,6.6,4.2,4,8.1c-0.8,1.2-2.1,1.9-3.5,1.9H29c-2.2,0-4,1.8-4,4l0,0v-9L0,0v60l25,25V54c0-2.2,1.8-4,4-4h16.5c10.3,0.1,19.6-6.4,23-16.2C74.5,16.3,61.7,0,45,0z"/>
</svg>
