<svg id="pwentk_logo" data-name="Pwentk logo" xmlns="http://www.w3.org/2000/svg" viewBox="0 0 1290 279"><defs><style>.cls-1{fill:#ffffff;}</style></defs><title>대지 1</title><polygon class="cls-1" points="473.53 68.92 438.96 170.14 409.98 121.72 367.07 121.72 338.09 170.14 303.52 68.92 250.68 68.92 305.44 229.23 361 229.23 388.52 183.24 416.06 229.23 471.61 229.23 526.37 68.92 473.53 68.92"/><path class="cls-1" d="M697.73,95.75c-39.35-64.6-183-35-176.56,56.3,1.77,25.26,7,51,33.17,68.42,22.21,14.77,78.93,20.48,138.18,13.14V189c-47.64,10.34-124.13,5.35-117.9-28.93C715.27,198.54,714.8,123.75,697.73,95.75ZM652,128.4c-10.22,7.85-56.57.25-70.41-3.13C609.2,100.58,671.37,113.49,652,128.4Z"/><path class="cls-1" d="M886.2,82.25c-20.91-20.46-63-31.81-115.09-4.74V68.92h-50V229.23h50V136.32c15.91-11.63,42-26.62,60-24.87,21.27,2.09,23.43,8.32,23.43,17.8v100h50C904.52,127.74,910,105.56,886.2,82.25Z"/><polygon class="cls-1" points="1230.2 229.23 1290.14 229.23 1220.2 123.42 1288.68 80.56 1228.93 58.97 1163.17 100.14 1163.17 20.75 1113.17 20.75 1113.17 229.23 1163.17 229.23 1163.17 159.12 1177.81 149.96 1230.2 229.23"/><polygon class="cls-1" points="1097.33 99.99 1033.85 99.99 1033.85 20.75 983.85 20.75 983.85 99.99 920.36 99.99 920.36 149.99 983.85 149.99 983.85 229.23 1033.85 229.23 1033.85 149.99 1097.33 149.99 1097.33 99.99"/><path class="cls-1" d="M219,34.24C188.31-4,150.6-2.72,100.05,1.48c-12.24,1-9.19,12.31-9.19,51.08l-50-44c-23.2,3.44-40,6.62-41,6.81L9.19,64.46c.2,0,13.11-2.48,31.67-5.35V229.23l50,50v-115c0-15.52,17.92-8.44,73.55-10C224.86,152.4,256.94,81.58,219,34.24ZM183,90.8c-8.17,17.68-18.94,13.43-92.15,13.43V52.56c62.07-6.41,75.64-3.85,89.11,13A23.75,23.75,0,0,1,183,90.8Z"/></svg>